<svg width="37" height="38" viewBox="0 0 37 38" fill="none" xmlns="http://www.w3.org/2000/svg">
<g clip-path="url(#clip0_23_9)">
<path d="M34.1668 29.381C34.9716 29.8071 35.6226 30.4107 36.1197 31.1919C36.6169 31.9731 36.8654 32.8372 36.8654 33.784V36.0566H28.4144H27.1361H0.504578V33.5C0.504578 32.4584 0.764974 31.5115 1.28577 30.6593C1.80656 29.8071 2.49306 29.1443 3.34527 28.6708L8.74258 25.6881C9.31072 25.404 9.59479 24.9542 9.59479 24.3388V22.2793C8.60055 20.9536 7.89037 19.5096 7.46427 17.9472C6.84879 17.4264 6.54105 16.7872 6.54105 16.0297V13.6151C6.54105 12.9997 6.7541 12.4789 7.1802 12.0528V8.78597C7.03817 7.27094 7.46427 5.94528 8.45851 4.809C9.68948 3.38866 11.678 2.67849 14.424 2.67849C17.17 2.67849 19.1821 3.38866 20.4604 4.809C20.8392 5.28245 21.1469 5.77957 21.3837 6.30037C22.2832 5.96895 23.2538 5.80324 24.2954 5.80324C25.0529 5.80324 25.7631 5.89793 26.4259 6.08731C27.0887 6.27669 27.645 6.50158 28.0948 6.76198C28.5446 7.02237 28.9588 7.34195 29.3376 7.72071C29.7163 8.09947 30.0359 8.47823 30.2963 8.85699C30.5567 9.23575 30.7698 9.65001 30.9355 10.0998C31.1012 10.5496 31.2314 10.9402 31.3261 11.2716C31.4208 11.603 31.4918 11.9344 31.5391 12.2658C31.5865 12.5972 31.622 12.8221 31.6457 12.9405C31.6693 13.0588 31.6812 13.1417 31.6812 13.189C31.7285 16.3611 33.0068 19.7226 35.5161 23.2735C35.8475 23.7469 35.9304 24.2559 35.7647 24.8004C35.5989 25.3448 35.2557 25.7354 34.7349 25.9721C33.8827 26.3509 32.8885 26.4693 31.7522 26.3272L27.7752 26.3983C27.9172 26.635 28.0593 26.777 28.2013 26.8244L34.1668 29.381ZM27.1361 34.8493V33.571C27.1361 33.0502 27.0414 32.5412 26.852 32.0441C26.6626 31.547 26.3904 31.1091 26.0353 30.7303C25.6802 30.3515 25.2659 30.0438 24.7925 29.8071L19.0401 26.8954C18.756 26.7533 18.5193 26.5876 18.3299 26.3983H18.2589L18.1169 26.1852C18.0222 26.0432 17.9275 25.9011 17.8328 25.7591C17.8328 25.7118 17.8328 25.6881 17.8328 25.6881C17.7854 25.5934 17.7144 25.475 17.6197 25.333C17.6197 25.333 17.6197 25.3093 17.6197 25.262C17.5724 25.1673 17.5487 25.0489 17.5487 24.9069C17.5487 24.9069 17.5487 24.8951 17.5487 24.8714C17.5487 24.8477 17.5251 24.8359 17.4777 24.8359C17.4777 24.6465 17.4777 24.4808 17.4777 24.3388V21.8531L17.6197 21.7111C17.7618 21.5217 17.9275 21.3087 18.1169 21.072C18.8744 20.0304 19.4425 18.8704 19.8213 17.5921L19.9633 17.308L20.2474 17.166C20.8155 17.024 21.0996 16.6452 21.0996 16.0297V13.6151C21.0996 13.2837 20.9576 12.976 20.6735 12.6919L20.5314 12.5499V8.71495C20.5314 8.62026 20.5314 8.52557 20.5314 8.43088C20.5314 8.38354 20.5314 8.33619 20.5314 8.28885C20.5314 8.19416 20.5314 8.12314 20.5314 8.0758C20.5314 7.98111 20.5078 7.91009 20.4604 7.86275C20.4604 7.8154 20.4604 7.76805 20.4604 7.72071C20.4604 7.67337 20.4604 7.64969 20.4604 7.64969C20.4604 7.60235 20.4604 7.555 20.4604 7.50766C20.4131 7.46031 20.3894 7.41297 20.3894 7.36562C20.2474 6.7028 19.9633 6.13466 19.5372 5.66121C18.4956 4.47759 16.7912 3.88578 14.424 3.88578C12.0567 3.88578 10.376 4.47759 9.38174 5.66121C8.57687 6.51342 8.24546 7.53133 8.3875 8.71495V8.78597V12.5499L8.17444 12.6919C7.89037 12.976 7.74834 13.2837 7.74834 13.6151V16.0297C7.74834 16.4558 7.93772 16.7872 8.31648 17.024L8.52953 17.166L8.60055 17.4501C8.97931 19.0598 9.66581 20.4801 10.66 21.7111L10.8021 21.8531V24.3388C10.8021 25.4277 10.305 26.2325 9.31072 26.7533L3.91341 29.7361C2.44572 30.5409 1.71187 31.7956 1.71187 33.5V34.8493H27.1361ZM35.6581 34.8493V33.784C35.6581 32.269 34.9716 31.1801 33.5986 30.5173L27.7042 27.9606C27.2781 27.7239 26.923 27.3215 26.6389 26.7533C26.4496 26.3746 26.4614 26.0077 26.6744 25.6526C26.8875 25.2975 27.2071 25.1199 27.6332 25.1199H31.8232C32.8648 25.1673 33.6933 25.0726 34.3088 24.8359C34.4508 24.7885 34.5455 24.6702 34.5929 24.4808C34.6402 24.2914 34.6165 24.1257 34.5219 23.9837C31.8705 20.1961 30.5212 16.5979 30.4739 13.189C30.4739 13.0944 30.462 12.9642 30.4384 12.7984C30.4147 12.6327 30.3555 12.3368 30.2608 11.9107C30.1661 11.4846 30.0478 11.0822 29.9057 10.7034C29.7637 10.3247 29.527 9.89857 29.1956 9.42513C28.8641 8.95168 28.4972 8.54925 28.0948 8.21783C27.6924 7.88642 27.1597 7.60235 26.4969 7.36562C25.8341 7.1289 25.1002 7.01054 24.2954 7.01054C23.3011 7.01054 22.4252 7.17624 21.6677 7.50766C21.7624 7.98111 21.7861 8.40721 21.7387 8.78597V12.0528C22.1175 12.4789 22.3069 12.9997 22.3069 13.6151V16.0297C22.3069 17.0713 21.8334 17.8052 20.8865 18.2313C20.4604 19.5096 19.8686 20.6695 19.1111 21.7111C18.9691 21.9478 18.827 22.1609 18.685 22.3503V24.3388C18.685 24.4808 18.7087 24.6228 18.756 24.7649C18.756 24.8122 18.7797 24.8832 18.827 24.9779C18.8744 25.0726 18.8981 25.1199 18.8981 25.1199H20.2474C20.7208 25.1199 21.0522 25.3567 21.2416 25.8301C21.3363 26.1142 21.3126 26.3746 21.1706 26.6113L25.3606 28.6708C26.3075 29.1443 27.0532 29.8189 27.5977 30.6948C28.1421 31.5707 28.4144 32.5294 28.4144 33.571V34.8493H35.6581Z" fill="white"/>
</g>
<defs>
<clipPath id="clip0_23_9">
<rect width="36.41" height="37" fill="white" transform="matrix(1 0 0 -1 0.47998 37.69)"/>
</clipPath>
</defs>
</svg>
